<?xml version="1.0" encoding="UTF-8" standalone="no"?>
<!DOCTYPE svg PUBLIC "-//W3C//DTD SVG 1.1//EN" "http://www.w3.org/Graphics/SVG/1.1/DTD/svg11.dtd">
<svg width="100%" height="100%" viewBox="0 0 256000 256000" version="1.1" xmlns="http://www.w3.org/2000/svg" xmlns:xlink="http://www.w3.org/1999/xlink" xml:space="preserve" xmlns:serif="http://www.serif.com/" style="fill-rule:evenodd;clip-rule:evenodd;stroke-linecap:round;stroke-linejoin:round;stroke-miterlimit:1.5;">
    <g transform="matrix(0.685637,-1.2646e-32,1.2646e-32,0.685637,62275.2,63435.1)">
        <path d="M95859.5,79576.6C109769,71522.9 125916,66911.6 143132,66911.6C195312,66911.6 237676,109275 237676,161456C237676,213636 195312,256000 143132,256000C125916,256000 109769,251389 95859.5,243335C124110,226978 143132,196421 143132,161456C143132,126491 124110,95933.7 95859.5,79576.6Z" style="fill:rgb(187,40,111);stroke:rgb(235,235,235);stroke-width:1.46px;"/>
    </g>
    <g transform="matrix(2.11339e-17,-0.685637,0.685637,2.11339e-17,17300,179926)">
        <path d="M95859.5,79576.6C109769,71522.9 125916,66911.6 143132,66911.6C195312,66911.6 237676,109275 237676,161456C237676,213636 195312,256000 143132,256000C125916,256000 109769,251389 95859.5,243335C124110,226978 143132,196421 143132,161456C143132,126491 124110,95933.7 95859.5,79576.6Z" style="fill:rgb(187,40,111);stroke:rgb(235,235,235);stroke-width:1.46px;"/>
    </g>
    <g transform="matrix(-0.685637,8.39663e-17,-8.39663e-17,-0.685637,193725,284835)">
        <path d="M95859.5,79576.6C109769,71522.9 125916,66911.6 143132,66911.6C195312,66911.6 237676,109275 237676,161456C237676,213636 195312,256000 143132,256000C125916,256000 109769,251389 95859.5,243335C124110,226978 143132,196421 143132,161456C143132,126491 124110,95933.7 95859.5,79576.6Z" style="fill:rgb(187,40,111);stroke:rgb(235,235,235);stroke-width:1.46px;"/>
    </g>
</svg>
