<?xml version="1.0" encoding="UTF-8" standalone="no"?>
<!DOCTYPE svg PUBLIC "-//W3C//DTD SVG 1.1//EN" "http://www.w3.org/Graphics/SVG/1.1/DTD/svg11.dtd">
<svg width="100%" height="100%" viewBox="0 0 256000 256000" version="1.1" xmlns="http://www.w3.org/2000/svg" xmlns:xlink="http://www.w3.org/1999/xlink" xml:space="preserve" xmlns:serif="http://www.serif.com/" style="fill-rule:evenodd;clip-rule:evenodd;stroke-linejoin:round;stroke-miterlimit:2;">
    <g transform="matrix(2.11339e-17,-0.685637,0.685637,2.11339e-17,17300,206847)">
        <g id="Layer1">
            <path d="M4985.35,161456C-3068.35,147546 -7679.62,131399 -7679.62,114184C-7679.62,62003.3 34684.2,19639.5 86864.6,19639.5C123532,19639.5 155352,40558.3 171031,71102.4C209611,83017.3 237676,118985 237676,161456C237676,203927 209611,239894 171031,251809C155352,282353 123532,303272 86864.6,303272C34684.2,303272 -7679.62,260908 -7679.62,208728C-7679.62,191512 -3068.35,175365 4985.35,161456C21342.5,189706 51899.7,208728 86864.6,208728C121829,208728 152387,189706 168744,161456C176798,175365 181409,191512 181409,208728C181409,215384 180719,221881 179408,228150C192960,209387 200949,186347 200949,161456C200949,136564 192960,113524 179408,94761.6C180719,101031 181409,107527 181409,114184C181409,131399 176798,147546 168744,161456C152387,133205 121829,114184 86864.6,114184C51899.7,114184 21342.5,133205 4985.35,161456Z" style="fill:rgb(187,40,111);"/>
        </g>
    </g>
</svg>
